<svg width="388" height="34" viewBox="0 0 388 34" fill="none" xmlns="http://www.w3.org/2000/svg">
<path d="M13.68 24.16H30.048C30.4 24.16 30.704 24.288 30.96 24.544C31.216 24.8 31.344 25.104 31.344 25.456V32.704C31.344 33.056 31.216 33.36 30.96 33.616C30.704 33.872 30.4 34 30.048 34H2.016C1.664 34 1.36 33.872 1.104 33.616C0.848001 33.36 0.720001 33.056 0.720001 32.704V1.69603C0.720001 1.34403 0.848001 1.04002 1.104 0.784023C1.36 0.528023 1.664 0.400024 2.016 0.400024H12.384C12.736 0.400024 13.04 0.528023 13.296 0.784023C13.552 1.04002 13.68 1.34403 13.68 1.69603V24.16Z" fill="#FF3D00"/>
<path d="M54.4613 24.16H70.8293C71.1813 24.16 71.4852 24.288 71.7412 24.544C71.9972 24.8 72.1253 25.104 72.1253 25.456V32.704C72.1253 33.056 71.9972 33.36 71.7412 33.616C71.4852 33.872 71.1813 34 70.8293 34H42.7972C42.4452 34 42.1413 33.872 41.8853 33.616C41.6293 33.36 41.5013 33.056 41.5013 32.704V1.69603C41.5013 1.34403 41.6293 1.04002 41.8853 0.784023C42.1413 0.528023 42.4452 0.400024 42.7972 0.400024H53.1653C53.5173 0.400024 53.8213 0.528023 54.0773 0.784023C54.3333 1.04002 54.4613 1.34403 54.4613 1.69603V24.16Z" fill="#FF3D00"/>
<path d="M86.8905 34H77.8185C77.5305 34 77.2745 33.904 77.0505 33.712C76.8585 33.488 76.7625 33.28 76.7625 33.088C76.7625 32.896 76.7785 32.752 76.8105 32.656L87.2745 1.98402C87.5625 0.928024 88.2825 0.400024 89.4345 0.400024H102.779C103.931 0.400024 104.65 0.928024 104.938 1.98402L115.403 32.656C115.435 32.752 115.451 32.896 115.451 33.088C115.451 33.28 115.339 33.488 115.115 33.712C114.923 33.904 114.683 34 114.395 34H105.323C104.299 34 103.579 33.456 103.163 32.368L101.963 29.008H90.2505L89.0505 32.368C88.6345 33.456 87.9145 34 86.8905 34ZM99.5145 19.648L96.1065 9.66402L92.6985 19.648H99.5145Z" fill="#FF3D00"/>
<path d="M145.096 0.400024H153.88C154.232 0.400024 154.536 0.528023 154.792 0.784023C155.048 1.04002 155.176 1.34403 155.176 1.69603V32.704C155.176 33.056 155.048 33.36 154.792 33.616C154.536 33.872 154.232 34 153.88 34H145.192C144.84 34 144.536 33.872 144.28 33.616C144.024 33.36 143.896 33.056 143.896 32.704V17.824L140.392 24.736C140.2 25.12 139.912 25.424 139.528 25.648C139.144 25.84 138.76 25.936 138.376 25.936H135.112C134.568 25.936 134.12 25.792 133.768 25.504C133.416 25.216 133.192 24.96 133.096 24.736L129.592 17.824V32.704C129.592 33.056 129.464 33.36 129.208 33.616C128.952 33.872 128.648 34 128.296 34H119.608C119.256 34 118.952 33.872 118.696 33.616C118.44 33.36 118.312 33.056 118.312 32.704V1.69603C118.312 1.34403 118.44 1.04002 118.696 0.784023C118.952 0.528023 119.256 0.400024 119.608 0.400024H128.392C129.288 0.400024 129.976 0.832026 130.456 1.69603L136.744 13.216L143.032 1.69603C143.512 0.832026 144.2 0.400024 145.096 0.400024Z" fill="#FF3D00"/>
<path d="M168.453 34H159.381C159.093 34 158.837 33.904 158.613 33.712C158.421 33.488 158.325 33.28 158.325 33.088C158.325 32.896 158.341 32.752 158.373 32.656L168.837 1.98402C169.125 0.928024 169.845 0.400024 170.997 0.400024H184.341C185.493 0.400024 186.213 0.928024 186.501 1.98402L196.965 32.656C196.997 32.752 197.013 32.896 197.013 33.088C197.013 33.28 196.901 33.488 196.677 33.712C196.485 33.904 196.245 34 195.957 34H186.885C185.861 34 185.141 33.456 184.725 32.368L183.525 29.008H171.813L170.613 32.368C170.197 33.456 169.477 34 168.453 34ZM181.077 19.648L177.669 9.66402L174.261 19.648H181.077Z" fill="#FF3D00"/>
<path d="M237.362 32.512C237.426 32.64 237.458 32.816 237.458 33.04C237.458 33.264 237.346 33.488 237.122 33.712C236.93 33.904 236.69 34 236.402 34H225.506C224.546 34 223.874 33.6 223.49 32.8L219.266 23.296H215.234V32.704C215.234 33.056 215.106 33.36 214.85 33.616C214.594 33.872 214.29 34 213.938 34H203.57C203.218 34 202.914 33.872 202.658 33.616C202.402 33.36 202.274 33.056 202.274 32.704V1.69603C202.274 1.34403 202.402 1.04002 202.658 0.784023C202.914 0.528023 203.218 0.400024 203.57 0.400024H222.242C226.626 0.400024 230.098 1.44002 232.658 3.52002C235.218 5.60002 236.498 8.43202 236.498 12.016C236.498 16.368 234.818 19.52 231.458 21.472L237.362 32.512ZM215.234 9.32803V14.416H221.234C221.938 14.416 222.482 14.192 222.866 13.744C223.25 13.264 223.442 12.672 223.442 11.968C223.442 11.264 223.25 10.656 222.866 10.144C222.514 9.60002 221.97 9.32803 221.234 9.32803H215.234Z" fill="#FF3D00"/>
<path d="M250.016 34H240.943C240.655 34 240.4 33.904 240.176 33.712C239.984 33.488 239.887 33.28 239.887 33.088C239.887 32.896 239.904 32.752 239.936 32.656L250.4 1.98402C250.688 0.928024 251.408 0.400024 252.56 0.400024H265.904C267.056 0.400024 267.776 0.928024 268.064 1.98402L278.527 32.656C278.559 32.752 278.576 32.896 278.576 33.088C278.576 33.28 278.464 33.488 278.24 33.712C278.048 33.904 277.808 34 277.52 34H268.448C267.424 34 266.704 33.456 266.288 32.368L265.087 29.008H253.375L252.176 32.368C251.76 33.456 251.04 34 250.016 34ZM262.639 19.648L259.232 9.66402L255.823 19.648H262.639Z" fill="#FF3D00"/>
<path d="M284.413 0.400024H299.725C303.245 0.400024 306.301 0.864025 308.893 1.79203C311.485 2.72003 313.581 4.28802 315.181 6.49603C316.781 8.70403 317.581 11.456 317.581 14.752V19.648C317.581 24.768 315.853 28.496 312.397 30.832C309.229 32.944 305.005 34 299.725 34H284.413C284.061 34 283.757 33.872 283.501 33.616C283.245 33.36 283.117 33.056 283.117 32.704V1.69603C283.117 1.34403 283.245 1.04002 283.501 0.784023C283.757 0.528023 284.061 0.400024 284.413 0.400024ZM295.597 9.76003V24.64H299.965C301.469 24.64 302.653 24.288 303.517 23.584C304.413 22.848 304.861 21.824 304.861 20.512V13.888C304.861 12.576 304.413 11.568 303.517 10.864C302.653 10.128 301.469 9.76003 299.965 9.76003H295.597Z" fill="#FF3D00"/>
<path d="M331.578 34H322.506C322.218 34 321.962 33.904 321.738 33.712C321.546 33.488 321.45 33.28 321.45 33.088C321.45 32.896 321.466 32.752 321.498 32.656L331.962 1.98402C332.25 0.928024 332.97 0.400024 334.122 0.400024H347.466C348.618 0.400024 349.338 0.928024 349.626 1.98402L360.09 32.656C360.122 32.752 360.138 32.896 360.138 33.088C360.138 33.28 360.026 33.488 359.802 33.712C359.61 33.904 359.37 34 359.082 34H350.01C348.986 34 348.266 33.456 347.85 32.368L346.65 29.008H334.938L333.738 32.368C333.322 33.456 332.602 34 331.578 34ZM344.202 19.648L340.794 9.66402L337.386 19.648H344.202Z" fill="#FF3D00"/>
<path d="M376.583 0.400024H386.327C386.679 0.400024 386.983 0.528023 387.239 0.784023C387.495 1.04002 387.623 1.37603 387.623 1.79203L387.575 20.08C387.575 20.4 387.447 20.688 387.191 20.944C386.935 21.168 386.631 21.28 386.279 21.28H376.583C376.199 21.28 375.879 21.168 375.623 20.944C375.399 20.688 375.287 20.352 375.287 19.936V1.88803C375.287 1.44003 375.399 1.08802 375.623 0.832024C375.879 0.544024 376.199 0.400024 376.583 0.400024ZM376.583 23.296H386.279C386.631 23.296 386.935 23.424 387.191 23.68C387.447 23.936 387.575 24.24 387.575 24.592V32.704C387.575 33.056 387.447 33.36 387.191 33.616C386.935 33.872 386.631 34 386.279 34H376.583C376.231 34 375.927 33.872 375.671 33.616C375.415 33.36 375.287 33.056 375.287 32.704V24.592C375.287 24.24 375.415 23.936 375.671 23.68C375.927 23.424 376.231 23.296 376.583 23.296Z" fill="#FF3D00"/>
</svg>
